<?xml version="1.0" encoding="UTF-8"?>
<svg xmlns="http://www.w3.org/2000/svg"
     xmlns:xlink="http://www.w3.org/1999/xlink"
     xmlns:gadfly="http://www.gadflyjl.org/ns"
     version="1.2"
     width="141.42mm" height="100mm" viewBox="0 0 141.42 100"
     stroke="none"
     fill="#000000"
     stroke-width="0.3"
     font-size="3.88"
>
<defs>
  <marker id="arrow" markerWidth="15" markerHeight="7" refX="5" refY="3.5" orient="auto" markerUnits="strokeWidth">
    <path d="M0,0 L15,3.5 L0,7 z" stroke="context-stroke" fill="context-stroke"/>
  </marker>
</defs>
<g class="plotroot xscalable" id="img-0553ba4e-1">
  <g font-size="3.88" font-family="'PT Sans','Helvetica Neue','Helvetica',sans-serif" fill="#564A55" stroke="#000000" stroke-opacity="0.000" id="img-0553ba4e-2">
    <g transform="translate(83.44,88.39)">
      <g class="primitive">
        <text text-anchor="middle" dy="0.6em">管理机构</text>
      </g>
    </g>
  </g>
  <g class="guide xlabels" font-size="2.82" font-family="'PT Sans Caption','Helvetica Neue','Helvetica',sans-serif" fill="#6C606B" id="img-0553ba4e-3">
    <g transform="translate(39.31,81.72)">
      <g class="primitive">
        <text text-anchor="middle" dy="0.6em">0</text>
      </g>
    </g>
    <g transform="translate(68.73,81.72)">
      <g class="primitive">
        <text text-anchor="middle" dy="0.6em">5</text>
      </g>
    </g>
    <g transform="translate(98.15,81.72)">
      <g class="primitive">
        <text text-anchor="middle" dy="0.6em">10</text>
      </g>
    </g>
    <g transform="translate(127.57,81.72)">
      <g class="primitive">
        <text text-anchor="middle" dy="0.6em">15</text>
      </g>
    </g>
  </g>
  <g class="guide colorkey" id="img-0553ba4e-4">
    <g font-size="2.82" font-family="'PT Sans','Helvetica Neue','Helvetica',sans-serif" fill="#4C404B" id="img-0553ba4e-5">
      <g transform="translate(133.88,36.81)">
        <g class="primitive">
          <text dy="0.35em">8</text>
        </g>
      </g>
      <g transform="translate(133.88,60.22)">
        <g class="primitive">
          <text dy="0.35em">2</text>
        </g>
      </g>
      <g transform="translate(133.88,52.42)">
        <g class="primitive">
          <text dy="0.35em">4</text>
        </g>
      </g>
      <g transform="translate(133.88,64.12)">
        <g class="primitive">
          <text dy="0.35em">1</text>
        </g>
      </g>
      <g transform="translate(133.88,44.62)">
        <g class="primitive">
          <text dy="0.35em">6</text>
        </g>
      </g>
    </g>
    <g shape-rendering="crispEdges" fill-opacity="1" stroke="#000000" stroke-opacity="0.000" id="img-0553ba4e-6">
      <g transform="translate(132.22,63.78)" fill="#004D84">
        <path d="M-0.66,-0.34 L0.66,-0.34 0.66,0.34 -0.66,0.34  z" class="primitive"/>
      </g>
      <g transform="translate(132.22,63.1)" fill="#005B8D">
        <path d="M-0.66,-0.34 L0.66,-0.34 0.66,0.34 -0.66,0.34  z" class="primitive"/>
      </g>
      <g transform="translate(132.22,62.42)" fill="#006995">
        <path d="M-0.66,-0.34 L0.66,-0.34 0.66,0.34 -0.66,0.34  z" class="primitive"/>
      </g>
      <g transform="translate(132.22,61.74)" fill="#00769D">
        <path d="M-0.66,-0.34 L0.66,-0.34 0.66,0.34 -0.66,0.34  z" class="primitive"/>
      </g>
      <g transform="translate(132.22,61.05)" fill="#0083A3">
        <path d="M-0.66,-0.34 L0.66,-0.34 0.66,0.34 -0.66,0.34  z" class="primitive"/>
      </g>
      <g transform="translate(132.22,60.37)" fill="#278FA9">
        <path d="M-0.66,-0.34 L0.66,-0.34 0.66,0.34 -0.66,0.34  z" class="primitive"/>
      </g>
      <g transform="translate(132.22,59.69)" fill="#409BAF">
        <path d="M-0.66,-0.34 L0.66,-0.34 0.66,0.34 -0.66,0.34  z" class="primitive"/>
      </g>
      <g transform="translate(132.22,59)" fill="#55A7B5">
        <path d="M-0.66,-0.34 L0.66,-0.34 0.66,0.34 -0.66,0.34  z" class="primitive"/>
      </g>
      <g transform="translate(132.22,58.32)" fill="#69B2BA">
        <path d="M-0.66,-0.34 L0.66,-0.34 0.66,0.34 -0.66,0.34  z" class="primitive"/>
      </g>
      <g transform="translate(132.22,57.64)" fill="#7BBCC0">
        <path d="M-0.66,-0.34 L0.66,-0.34 0.66,0.34 -0.66,0.34  z" class="primitive"/>
      </g>
      <g transform="translate(132.22,56.96)" fill="#8DC6C5">
        <path d="M-0.66,-0.34 L0.66,-0.34 0.66,0.34 -0.66,0.34  z" class="primitive"/>
      </g>
      <g transform="translate(132.22,56.27)" fill="#9ED0CB">
        <path d="M-0.66,-0.34 L0.66,-0.34 0.66,0.34 -0.66,0.34  z" class="primitive"/>
      </g>
      <g transform="translate(132.22,55.59)" fill="#A5CFC7">
        <path d="M-0.66,-0.34 L0.66,-0.34 0.66,0.34 -0.66,0.34  z" class="primitive"/>
      </g>
      <g transform="translate(132.22,54.91)" fill="#ABCEC4">
        <path d="M-0.66,-0.34 L0.66,-0.34 0.66,0.34 -0.66,0.34  z" class="primitive"/>
      </g>
      <g transform="translate(132.22,54.22)" fill="#B1CCC2">
        <path d="M-0.66,-0.34 L0.66,-0.34 0.66,0.34 -0.66,0.34  z" class="primitive"/>
      </g>
      <g transform="translate(132.22,53.54)" fill="#B5CCC1">
        <path d="M-0.66,-0.34 L0.66,-0.34 0.66,0.34 -0.66,0.34  z" class="primitive"/>
      </g>
      <g transform="translate(132.22,52.86)" fill="#B7CBBF">
        <path d="M-0.66,-0.34 L0.66,-0.34 0.66,0.34 -0.66,0.34  z" class="primitive"/>
      </g>
      <g transform="translate(132.22,52.18)" fill="#B9CBBD">
        <path d="M-0.66,-0.34 L0.66,-0.34 0.66,0.34 -0.66,0.34  z" class="primitive"/>
      </g>
      <g transform="translate(132.22,51.49)" fill="#BBCBBB">
        <path d="M-0.66,-0.34 L0.66,-0.34 0.66,0.34 -0.66,0.34  z" class="primitive"/>
      </g>
      <g transform="translate(132.22,50.81)" fill="#BDCABA">
        <path d="M-0.66,-0.34 L0.66,-0.34 0.66,0.34 -0.66,0.34  z" class="primitive"/>
      </g>
      <g transform="translate(132.22,50.13)" fill="#BFCAB8">
        <path d="M-0.66,-0.34 L0.66,-0.34 0.66,0.34 -0.66,0.34  z" class="primitive"/>
      </g>
      <g transform="translate(132.22,49.44)" fill="#C2C9B7">
        <path d="M-0.66,-0.34 L0.66,-0.34 0.66,0.34 -0.66,0.34  z" class="primitive"/>
      </g>
      <g transform="translate(132.22,48.76)" fill="#C4C9B6">
        <path d="M-0.66,-0.34 L0.66,-0.34 0.66,0.34 -0.66,0.34  z" class="primitive"/>
      </g>
      <g transform="translate(132.22,48.08)" fill="#C6C8B5">
        <path d="M-0.66,-0.34 L0.66,-0.34 0.66,0.34 -0.66,0.34  z" class="primitive"/>
      </g>
      <g transform="translate(132.22,47.4)" fill="#C9C7B4">
        <path d="M-0.66,-0.34 L0.66,-0.34 0.66,0.34 -0.66,0.34  z" class="primitive"/>
      </g>
      <g transform="translate(132.22,46.71)" fill="#CCC7B2">
        <path d="M-0.66,-0.34 L0.66,-0.34 0.66,0.34 -0.66,0.34  z" class="primitive"/>
      </g>
      <g transform="translate(132.22,46.03)" fill="#CFC6AE">
        <path d="M-0.66,-0.34 L0.66,-0.34 0.66,0.34 -0.66,0.34  z" class="primitive"/>
      </g>
      <g transform="translate(132.22,45.35)" fill="#D4C5AA">
        <path d="M-0.66,-0.34 L0.66,-0.34 0.66,0.34 -0.66,0.34  z" class="primitive"/>
      </g>
      <g transform="translate(132.22,44.67)" fill="#D8C3A6">
        <path d="M-0.66,-0.34 L0.66,-0.34 0.66,0.34 -0.66,0.34  z" class="primitive"/>
      </g>
      <g transform="translate(132.22,43.98)" fill="#D3B79A">
        <path d="M-0.66,-0.34 L0.66,-0.34 0.66,0.34 -0.66,0.34  z" class="primitive"/>
      </g>
      <g transform="translate(132.22,43.3)" fill="#CDAB8E">
        <path d="M-0.66,-0.34 L0.66,-0.34 0.66,0.34 -0.66,0.34  z" class="primitive"/>
      </g>
      <g transform="translate(132.22,42.62)" fill="#C89E82">
        <path d="M-0.66,-0.34 L0.66,-0.34 0.66,0.34 -0.66,0.34  z" class="primitive"/>
      </g>
      <g transform="translate(132.22,41.93)" fill="#C19177">
        <path d="M-0.66,-0.34 L0.66,-0.34 0.66,0.34 -0.66,0.34  z" class="primitive"/>
      </g>
      <g transform="translate(132.22,41.25)" fill="#BA836C">
        <path d="M-0.66,-0.34 L0.66,-0.34 0.66,0.34 -0.66,0.34  z" class="primitive"/>
      </g>
      <g transform="translate(132.22,40.57)" fill="#B27563">
        <path d="M-0.66,-0.34 L0.66,-0.34 0.66,0.34 -0.66,0.34  z" class="primitive"/>
      </g>
      <g transform="translate(132.22,39.89)" fill="#AA665A">
        <path d="M-0.66,-0.34 L0.66,-0.34 0.66,0.34 -0.66,0.34  z" class="primitive"/>
      </g>
      <g transform="translate(132.22,39.2)" fill="#A05752">
        <path d="M-0.66,-0.34 L0.66,-0.34 0.66,0.34 -0.66,0.34  z" class="primitive"/>
      </g>
      <g transform="translate(132.22,38.52)" fill="#96484A">
        <path d="M-0.66,-0.34 L0.66,-0.34 0.66,0.34 -0.66,0.34  z" class="primitive"/>
      </g>
      <g transform="translate(132.22,37.84)" fill="#8B3844">
        <path d="M-0.66,-0.34 L0.66,-0.34 0.66,0.34 -0.66,0.34  z" class="primitive"/>
      </g>
      <g transform="translate(132.22,37.15)" fill="#7E273E">
        <path d="M-0.66,-0.34 L0.66,-0.34 0.66,0.34 -0.66,0.34  z" class="primitive"/>
      </g>
      <g stroke="#FFFFFF" stroke-width="0.2" id="img-0553ba4e-7">
        <g transform="translate(132.22,36.81)">
          <path fill="none" d="M-0.66,0 L0.66,0 " class="primitive"/>
        </g>
        <g transform="translate(132.22,60.22)">
          <path fill="none" d="M-0.66,0 L0.66,0 " class="primitive"/>
        </g>
        <g transform="translate(132.22,52.42)">
          <path fill="none" d="M-0.66,0 L0.66,0 " class="primitive"/>
        </g>
        <g transform="translate(132.22,64.12)">
          <path fill="none" d="M-0.66,0 L0.66,0 " class="primitive"/>
        </g>
        <g transform="translate(132.22,44.62)">
          <path fill="none" d="M-0.66,0 L0.66,0 " class="primitive"/>
        </g>
      </g>
    </g>
    <g fill="#362A35" font-size="3.88" font-family="'PT Sans','Helvetica Neue','Helvetica',sans-serif" stroke="#000000" stroke-opacity="0.000" id="img-0553ba4e-8">
      <g transform="translate(131.57,32.81)">
        <g class="primitive">
          <text dy="-0em">政策</text>
        </g>
      </g>
    </g>
  </g>
  <g clip-path="url(#img-0553ba4e-9)">
    <g id="img-0553ba4e-10">
      <g pointer-events="visible" stroke-width="0.3" fill="#000000" fill-opacity="0.000" stroke="#000000" stroke-opacity="0.000" class="guide background" id="img-0553ba4e-11">
        <g transform="translate(83.44,42.86)" id="img-0553ba4e-12">
          <path d="M-46.13,-37.86 L46.13,-37.86 46.13,37.86 -46.13,37.86  z" class="primitive"/>
        </g>
      </g>
      <g class="guide ygridlines xfixed" stroke-dasharray="0.5,0.5" stroke-width="0.2" stroke="#D0D0E0" id="img-0553ba4e-13">
        <g transform="translate(83.44,74.41)" id="img-0553ba4e-14">
          <path fill="none" d="M-46.13,0 L46.13,0 " class="primitive"/>
        </g>
        <g transform="translate(83.44,68.1)" id="img-0553ba4e-15">
          <path fill="none" d="M-46.13,0 L46.13,0 " class="primitive"/>
        </g>
        <g transform="translate(83.44,61.79)" id="img-0553ba4e-16">
          <path fill="none" d="M-46.13,0 L46.13,0 " class="primitive"/>
        </g>
        <g transform="translate(83.44,55.48)" id="img-0553ba4e-17">
          <path fill="none" d="M-46.13,0 L46.13,0 " class="primitive"/>
        </g>
        <g transform="translate(83.44,49.17)" id="img-0553ba4e-18">
          <path fill="none" d="M-46.13,0 L46.13,0 " class="primitive"/>
        </g>
        <g transform="translate(83.44,42.86)" id="img-0553ba4e-19">
          <path fill="none" d="M-46.13,0 L46.13,0 " class="primitive"/>
        </g>
        <g transform="translate(83.44,36.55)" id="img-0553ba4e-20">
          <path fill="none" d="M-46.13,0 L46.13,0 " class="primitive"/>
        </g>
        <g transform="translate(83.44,30.24)" id="img-0553ba4e-21">
          <path fill="none" d="M-46.13,0 L46.13,0 " class="primitive"/>
        </g>
        <g transform="translate(83.44,23.93)" id="img-0553ba4e-22">
          <path fill="none" d="M-46.13,0 L46.13,0 " class="primitive"/>
        </g>
        <g transform="translate(83.44,17.62)" id="img-0553ba4e-23">
          <path fill="none" d="M-46.13,0 L46.13,0 " class="primitive"/>
        </g>
        <g transform="translate(83.44,11.31)" id="img-0553ba4e-24">
          <path fill="none" d="M-46.13,0 L46.13,0 " class="primitive"/>
        </g>
      </g>
      <g class="guide xgridlines yfixed" stroke-dasharray="0.5,0.5" stroke-width="0.2" stroke="#D0D0E0" id="img-0553ba4e-25">
        <g transform="translate(39.31,42.86)" id="img-0553ba4e-26">
          <path fill="none" d="M0,-37.86 L0,37.86 " class="primitive"/>
        </g>
        <g transform="translate(68.73,42.86)" id="img-0553ba4e-27">
          <path fill="none" d="M0,-37.86 L0,37.86 " class="primitive"/>
        </g>
        <g transform="translate(98.15,42.86)" id="img-0553ba4e-28">
          <path fill="none" d="M0,-37.86 L0,37.86 " class="primitive"/>
        </g>
        <g transform="translate(127.57,42.86)" id="img-0553ba4e-29">
          <path fill="none" d="M0,-37.86 L0,37.86 " class="primitive"/>
        </g>
      </g>
      <g class="plotpanel" id="img-0553ba4e-30">
        <metadata>
          <boundingbox value="37.31166666666667mm 5.0mm 92.25635623730952mm 75.715mm"/>
          <unitbox value="-0.3399188600006782 12.5 15.679837720001355 -12.0"/>
        </metadata>
        <g shape-rendering="crispEdges" class="geometry" stroke="#000000" stroke-opacity="0.000" id="img-0553ba4e-31">
          <g transform="translate(47.94,77.54)" id="img-0553ba4e-32" fill-opacity="1" fill="#004D84">
            <path d="M-2.74,-3.18 L2.74,-3.18 2.74,3.18 -2.74,3.18  z" class="primitive"/>
          </g>
          <g transform="translate(64.23,77.54)" id="img-0553ba4e-33" fill-opacity="1" fill="#3696AD">
            <path d="M-2.74,-3.18 L2.74,-3.18 2.74,3.18 -2.74,3.18  z" class="primitive"/>
          </g>
          <g transform="translate(47.94,71.23)" id="img-0553ba4e-34" fill-opacity="1" fill="#B8CBBE">
            <path d="M-2.74,-3.18 L2.74,-3.18 2.74,3.18 -2.74,3.18  z" class="primitive"/>
          </g>
          <g transform="translate(53.37,71.23)" id="img-0553ba4e-35" fill-opacity="1" fill="#3696AD">
            <path d="M-2.74,-3.18 L2.74,-3.18 2.74,3.18 -2.74,3.18  z" class="primitive"/>
          </g>
          <g transform="translate(47.94,64.92)" id="img-0553ba4e-36" fill-opacity="1" fill="#9FD0CB">
            <path d="M-2.74,-3.18 L2.74,-3.18 2.74,3.18 -2.74,3.18  z" class="primitive"/>
          </g>
          <g transform="translate(53.37,64.92)" id="img-0553ba4e-37" fill-opacity="1" fill="#7E273E">
            <path d="M-2.74,-3.18 L2.74,-3.18 2.74,3.18 -2.74,3.18  z" class="primitive"/>
          </g>
          <g transform="translate(58.8,64.92)" id="img-0553ba4e-38" fill-opacity="1" fill="#B8CBBE">
            <path d="M-2.74,-3.18 L2.74,-3.18 2.74,3.18 -2.74,3.18  z" class="primitive"/>
          </g>
          <g transform="translate(64.23,64.92)" id="img-0553ba4e-39" fill-opacity="1" fill="#D8C4A7">
            <path d="M-2.74,-3.18 L2.74,-3.18 2.74,3.18 -2.74,3.18  z" class="primitive"/>
          </g>
          <g transform="translate(69.66,64.92)" id="img-0553ba4e-40" fill-opacity="1" fill="#C5C8B6">
            <path d="M-2.74,-3.18 L2.74,-3.18 2.74,3.18 -2.74,3.18  z" class="primitive"/>
          </g>
          <g transform="translate(75.09,64.92)" id="img-0553ba4e-41" fill-opacity="1" fill="#3696AD">
            <path d="M-2.74,-3.18 L2.74,-3.18 2.74,3.18 -2.74,3.18  z" class="primitive"/>
          </g>
          <g transform="translate(96.82,64.92)" id="img-0553ba4e-42" fill-opacity="1" fill="#004D84">
            <path d="M-2.74,-3.18 L2.74,-3.18 2.74,3.18 -2.74,3.18  z" class="primitive"/>
          </g>
          <g transform="translate(102.25,64.92)" id="img-0553ba4e-43" fill-opacity="1" fill="#004D84">
            <path d="M-2.74,-3.18 L2.74,-3.18 2.74,3.18 -2.74,3.18  z" class="primitive"/>
          </g>
          <g transform="translate(113.11,64.92)" id="img-0553ba4e-44" fill-opacity="1" fill="#004D84">
            <path d="M-2.74,-3.18 L2.74,-3.18 2.74,3.18 -2.74,3.18  z" class="primitive"/>
          </g>
          <g transform="translate(58.8,58.61)" id="img-0553ba4e-45" fill-opacity="1" fill="#004D84">
            <path d="M-2.74,-3.18 L2.74,-3.18 2.74,3.18 -2.74,3.18  z" class="primitive"/>
          </g>
          <g transform="translate(58.8,52.3)" id="img-0553ba4e-46" fill-opacity="1" fill="#004D84">
            <path d="M-2.74,-3.18 L2.74,-3.18 2.74,3.18 -2.74,3.18  z" class="primitive"/>
          </g>
          <g transform="translate(53.37,45.99)" id="img-0553ba4e-47" fill-opacity="1" fill="#004D84">
            <path d="M-2.74,-3.18 L2.74,-3.18 2.74,3.18 -2.74,3.18  z" class="primitive"/>
          </g>
          <g transform="translate(58.8,45.99)" id="img-0553ba4e-48" fill-opacity="1" fill="#3696AD">
            <path d="M-2.74,-3.18 L2.74,-3.18 2.74,3.18 -2.74,3.18  z" class="primitive"/>
          </g>
          <g transform="translate(64.23,45.99)" id="img-0553ba4e-49" fill-opacity="1" fill="#004D84">
            <path d="M-2.74,-3.18 L2.74,-3.18 2.74,3.18 -2.74,3.18  z" class="primitive"/>
          </g>
          <g transform="translate(69.66,45.99)" id="img-0553ba4e-50" fill-opacity="1" fill="#004D84">
            <path d="M-2.74,-3.18 L2.74,-3.18 2.74,3.18 -2.74,3.18  z" class="primitive"/>
          </g>
          <g transform="translate(75.09,45.99)" id="img-0553ba4e-51" fill-opacity="1" fill="#004D84">
            <path d="M-2.74,-3.18 L2.74,-3.18 2.74,3.18 -2.74,3.18  z" class="primitive"/>
          </g>
          <g transform="translate(80.52,45.99)" id="img-0553ba4e-52" fill-opacity="1" fill="#004D84">
            <path d="M-2.74,-3.18 L2.74,-3.18 2.74,3.18 -2.74,3.18  z" class="primitive"/>
          </g>
          <g transform="translate(47.94,39.68)" id="img-0553ba4e-53" fill-opacity="1" fill="#004D84">
            <path d="M-2.74,-3.18 L2.74,-3.18 2.74,3.18 -2.74,3.18  z" class="primitive"/>
          </g>
          <g transform="translate(58.8,39.68)" id="img-0553ba4e-54" fill-opacity="1" fill="#004D84">
            <path d="M-2.74,-3.18 L2.74,-3.18 2.74,3.18 -2.74,3.18  z" class="primitive"/>
          </g>
          <g transform="translate(47.94,33.37)" id="img-0553ba4e-55" fill-opacity="1" fill="#004D84">
            <path d="M-2.74,-3.18 L2.74,-3.18 2.74,3.18 -2.74,3.18  z" class="primitive"/>
          </g>
          <g transform="translate(53.37,33.37)" id="img-0553ba4e-56" fill-opacity="1" fill="#004D84">
            <path d="M-2.74,-3.18 L2.74,-3.18 2.74,3.18 -2.74,3.18  z" class="primitive"/>
          </g>
          <g transform="translate(64.23,27.06)" id="img-0553ba4e-57" fill-opacity="1" fill="#004D84">
            <path d="M-2.74,-3.18 L2.74,-3.18 2.74,3.18 -2.74,3.18  z" class="primitive"/>
          </g>
          <g transform="translate(47.94,20.75)" id="img-0553ba4e-58" fill-opacity="1" fill="#004D84">
            <path d="M-2.74,-3.18 L2.74,-3.18 2.74,3.18 -2.74,3.18  z" class="primitive"/>
          </g>
          <g transform="translate(53.37,20.75)" id="img-0553ba4e-59" fill-opacity="1" fill="#004D84">
            <path d="M-2.74,-3.18 L2.74,-3.18 2.74,3.18 -2.74,3.18  z" class="primitive"/>
          </g>
          <g transform="translate(69.66,14.44)" id="img-0553ba4e-60" fill-opacity="1" fill="#3696AD">
            <path d="M-2.74,-3.18 L2.74,-3.18 2.74,3.18 -2.74,3.18  z" class="primitive"/>
          </g>
          <g transform="translate(47.94,8.13)" id="img-0553ba4e-61" fill-opacity="1" fill="#004D84">
            <path d="M-2.74,-3.18 L2.74,-3.18 2.74,3.18 -2.74,3.18  z" class="primitive"/>
          </g>
        </g>
      </g>
    </g>
  </g>
  <g class="guide ylabels" font-size="2.82" font-family="'PT Sans Caption','Helvetica Neue','Helvetica',sans-serif" fill="#6C606B" id="img-0553ba4e-62">
    <g transform="translate(36.31,77.56)" id="img-0553ba4e-63">
      <g class="primitive">
        <text text-anchor="end" dy="0.35em">International</text>
      </g>
    </g>
    <g transform="translate(36.31,71.25)" id="img-0553ba4e-64">
      <g class="primitive">
        <text text-anchor="end" dy="0.35em">Canada</text>
      </g>
    </g>
    <g transform="translate(36.31,64.94)" id="img-0553ba4e-65">
      <g class="primitive">
        <text text-anchor="end" dy="0.35em">United States</text>
      </g>
    </g>
    <g transform="translate(36.31,58.63)" id="img-0553ba4e-66">
      <g class="primitive">
        <text text-anchor="end" dy="0.35em">United Kingdom</text>
      </g>
    </g>
    <g transform="translate(36.31,52.32)" id="img-0553ba4e-67">
      <g class="primitive">
        <text text-anchor="end" dy="0.35em">Greenland</text>
      </g>
    </g>
    <g transform="translate(36.31,46.01)" id="img-0553ba4e-68">
      <g class="primitive">
        <text text-anchor="end" dy="0.35em">Germany</text>
      </g>
    </g>
    <g transform="translate(36.31,39.7)" id="img-0553ba4e-69">
      <g class="primitive">
        <text text-anchor="end" dy="0.35em">Japan</text>
      </g>
    </g>
    <g transform="translate(36.31,33.39)" id="img-0553ba4e-70">
      <g class="primitive">
        <text text-anchor="end" dy="0.35em">European Union</text>
      </g>
    </g>
    <g transform="translate(36.31,27.08)" id="img-0553ba4e-71">
      <g class="primitive">
        <text text-anchor="end" dy="0.35em">China</text>
      </g>
    </g>
    <g transform="translate(36.31,20.77)" id="img-0553ba4e-72">
      <g class="primitive">
        <text text-anchor="end" dy="0.35em">Switzerland</text>
      </g>
    </g>
    <g transform="translate(36.31,14.46)" id="img-0553ba4e-73">
      <g class="primitive">
        <text text-anchor="end" dy="0.35em">France</text>
      </g>
    </g>
    <g transform="translate(36.31,8.15)" id="img-0553ba4e-74">
      <g class="primitive">
        <text text-anchor="end" dy="0.35em">Norway</text>
      </g>
    </g>
  </g>
  <g font-size="3.88" font-family="'PT Sans','Helvetica Neue','Helvetica',sans-serif" fill="#564A55" stroke="#000000" stroke-opacity="0.000" id="img-0553ba4e-75">
    <g transform="translate(8.81,40.86)" id="img-0553ba4e-76">
      <g class="primitive">
        <text text-anchor="middle" dy="0.35em" transform="rotate(-90,0, 2)">所属国家政府</text>
      </g>
    </g>
  </g>
</g>
<defs>
  <clipPath id="img-0553ba4e-9">
    <path d="M37.31,5 L129.57,5 129.57,80.72 37.31,80.72 " />
  </clipPath>
</defs>
</svg>
