<?xml version="1.0" encoding="UTF-8"?>
<svg xmlns="http://www.w3.org/2000/svg"
     xmlns:xlink="http://www.w3.org/1999/xlink"
     xmlns:gadfly="http://www.gadflyjl.org/ns"
     version="1.2"
     width="140mm" height="80mm" viewBox="0 0 140 80"
     stroke="none"
     fill="#000000"
     stroke-width="0.3"
     font-size="3.88"
>
<defs>
  <marker id="arrow" markerWidth="15" markerHeight="7" refX="5" refY="3.5" orient="auto" markerUnits="strokeWidth">
    <path d="M0,0 L15,3.5 L0,7 z" stroke="context-stroke" fill="context-stroke"/>
  </marker>
</defs>
<g class="plotroot xscalable yscalable" id="img-9095467d-1">
  <g font-size="3.88" font-family="'PT Sans','Helvetica Neue','Helvetica',sans-serif" fill="#564A55" stroke="#000000" stroke-opacity="0.000" id="img-9095467d-2">
    <g transform="translate(73.05,68.39)">
      <g class="primitive">
        <text text-anchor="middle" dy="0.6em">政策数量</text>
      </g>
    </g>
  </g>
  <g class="guide xlabels" font-size="2.82" font-family="'PT Sans Caption','Helvetica Neue','Helvetica',sans-serif" fill="#6C606B" id="img-9095467d-3">
    <g transform="translate(19.96,61.72)">
      <g class="primitive">
        <text text-anchor="middle" dy="0.6em">-1</text>
      </g>
    </g>
    <g transform="translate(37.66,61.72)">
      <g class="primitive">
        <text text-anchor="middle" dy="0.6em">0</text>
      </g>
    </g>
    <g transform="translate(55.35,61.72)">
      <g class="primitive">
        <text text-anchor="middle" dy="0.6em">1</text>
      </g>
    </g>
    <g transform="translate(73.05,61.72)">
      <g class="primitive">
        <text text-anchor="middle" dy="0.6em">2</text>
      </g>
    </g>
    <g transform="translate(90.75,61.72)">
      <g class="primitive">
        <text text-anchor="middle" dy="0.6em">3</text>
      </g>
    </g>
    <g transform="translate(108.45,61.72)">
      <g class="primitive">
        <text text-anchor="middle" dy="0.6em">4</text>
      </g>
    </g>
    <g transform="translate(126.15,61.72)">
      <g class="primitive">
        <text text-anchor="middle" dy="0.6em">5</text>
      </g>
    </g>
  </g>
  <g class="guide colorkey" id="img-9095467d-4">
    <g font-size="2.82" font-family="'PT Sans','Helvetica Neue','Helvetica',sans-serif" fill="#4C404B" id="img-9095467d-5">
      <g transform="translate(132.46,26.81)">
        <g class="primitive">
          <text dy="0.35em">4</text>
        </g>
      </g>
      <g transform="translate(132.46,47.3)">
        <g class="primitive">
          <text dy="0.35em">1</text>
        </g>
      </g>
      <g transform="translate(132.46,54.12)">
        <g class="primitive">
          <text dy="0.35em">0</text>
        </g>
      </g>
      <g transform="translate(132.46,40.47)">
        <g class="primitive">
          <text dy="0.35em">2</text>
        </g>
      </g>
      <g transform="translate(132.46,33.64)">
        <g class="primitive">
          <text dy="0.35em">3</text>
        </g>
      </g>
    </g>
    <g shape-rendering="crispEdges" fill-opacity="1" stroke="#000000" stroke-opacity="0.000" id="img-9095467d-6">
      <g transform="translate(130.8,53.78)" fill="#004D84">
        <path d="M-0.66,-0.34 L0.66,-0.34 0.66,0.34 -0.66,0.34  z" class="primitive"/>
      </g>
      <g transform="translate(130.8,53.1)" fill="#005B8D">
        <path d="M-0.66,-0.34 L0.66,-0.34 0.66,0.34 -0.66,0.34  z" class="primitive"/>
      </g>
      <g transform="translate(130.8,52.42)" fill="#006995">
        <path d="M-0.66,-0.34 L0.66,-0.34 0.66,0.34 -0.66,0.34  z" class="primitive"/>
      </g>
      <g transform="translate(130.8,51.74)" fill="#00769D">
        <path d="M-0.66,-0.34 L0.66,-0.34 0.66,0.34 -0.66,0.34  z" class="primitive"/>
      </g>
      <g transform="translate(130.8,51.05)" fill="#0083A3">
        <path d="M-0.66,-0.34 L0.66,-0.34 0.66,0.34 -0.66,0.34  z" class="primitive"/>
      </g>
      <g transform="translate(130.8,50.37)" fill="#278FA9">
        <path d="M-0.66,-0.34 L0.66,-0.34 0.66,0.34 -0.66,0.34  z" class="primitive"/>
      </g>
      <g transform="translate(130.8,49.69)" fill="#409BAF">
        <path d="M-0.66,-0.34 L0.66,-0.34 0.66,0.34 -0.66,0.34  z" class="primitive"/>
      </g>
      <g transform="translate(130.8,49)" fill="#55A7B5">
        <path d="M-0.66,-0.34 L0.66,-0.34 0.66,0.34 -0.66,0.34  z" class="primitive"/>
      </g>
      <g transform="translate(130.8,48.32)" fill="#69B2BA">
        <path d="M-0.66,-0.34 L0.66,-0.34 0.66,0.34 -0.66,0.34  z" class="primitive"/>
      </g>
      <g transform="translate(130.8,47.64)" fill="#7BBCC0">
        <path d="M-0.66,-0.34 L0.66,-0.34 0.66,0.34 -0.66,0.34  z" class="primitive"/>
      </g>
      <g transform="translate(130.8,46.96)" fill="#8DC6C5">
        <path d="M-0.66,-0.34 L0.66,-0.34 0.66,0.34 -0.66,0.34  z" class="primitive"/>
      </g>
      <g transform="translate(130.8,46.27)" fill="#9ED0CB">
        <path d="M-0.66,-0.34 L0.66,-0.34 0.66,0.34 -0.66,0.34  z" class="primitive"/>
      </g>
      <g transform="translate(130.8,45.59)" fill="#A5CFC7">
        <path d="M-0.66,-0.34 L0.66,-0.34 0.66,0.34 -0.66,0.34  z" class="primitive"/>
      </g>
      <g transform="translate(130.8,44.91)" fill="#ABCEC4">
        <path d="M-0.66,-0.34 L0.66,-0.34 0.66,0.34 -0.66,0.34  z" class="primitive"/>
      </g>
      <g transform="translate(130.8,44.22)" fill="#B1CCC2">
        <path d="M-0.66,-0.34 L0.66,-0.34 0.66,0.34 -0.66,0.34  z" class="primitive"/>
      </g>
      <g transform="translate(130.8,43.54)" fill="#B5CCC1">
        <path d="M-0.66,-0.34 L0.66,-0.34 0.66,0.34 -0.66,0.34  z" class="primitive"/>
      </g>
      <g transform="translate(130.8,42.86)" fill="#B7CBBF">
        <path d="M-0.66,-0.34 L0.66,-0.34 0.66,0.34 -0.66,0.34  z" class="primitive"/>
      </g>
      <g transform="translate(130.8,42.18)" fill="#B9CBBD">
        <path d="M-0.66,-0.34 L0.66,-0.34 0.66,0.34 -0.66,0.34  z" class="primitive"/>
      </g>
      <g transform="translate(130.8,41.49)" fill="#BBCBBB">
        <path d="M-0.66,-0.34 L0.66,-0.34 0.66,0.34 -0.66,0.34  z" class="primitive"/>
      </g>
      <g transform="translate(130.8,40.81)" fill="#BDCABA">
        <path d="M-0.66,-0.34 L0.66,-0.34 0.66,0.34 -0.66,0.34  z" class="primitive"/>
      </g>
      <g transform="translate(130.8,40.13)" fill="#BFCAB8">
        <path d="M-0.66,-0.34 L0.66,-0.34 0.66,0.34 -0.66,0.34  z" class="primitive"/>
      </g>
      <g transform="translate(130.8,39.44)" fill="#C2C9B7">
        <path d="M-0.66,-0.34 L0.66,-0.34 0.66,0.34 -0.66,0.34  z" class="primitive"/>
      </g>
      <g transform="translate(130.8,38.76)" fill="#C4C9B6">
        <path d="M-0.66,-0.34 L0.66,-0.34 0.66,0.34 -0.66,0.34  z" class="primitive"/>
      </g>
      <g transform="translate(130.8,38.08)" fill="#C6C8B5">
        <path d="M-0.66,-0.34 L0.66,-0.34 0.66,0.34 -0.66,0.34  z" class="primitive"/>
      </g>
      <g transform="translate(130.8,37.4)" fill="#C9C7B4">
        <path d="M-0.66,-0.34 L0.66,-0.34 0.66,0.34 -0.66,0.34  z" class="primitive"/>
      </g>
      <g transform="translate(130.8,36.71)" fill="#CCC7B2">
        <path d="M-0.66,-0.34 L0.66,-0.34 0.66,0.34 -0.66,0.34  z" class="primitive"/>
      </g>
      <g transform="translate(130.8,36.03)" fill="#CFC6AE">
        <path d="M-0.66,-0.34 L0.66,-0.34 0.66,0.34 -0.66,0.34  z" class="primitive"/>
      </g>
      <g transform="translate(130.8,35.35)" fill="#D4C5AA">
        <path d="M-0.66,-0.34 L0.66,-0.34 0.66,0.34 -0.66,0.34  z" class="primitive"/>
      </g>
      <g transform="translate(130.8,34.67)" fill="#D8C3A6">
        <path d="M-0.66,-0.34 L0.66,-0.34 0.66,0.34 -0.66,0.34  z" class="primitive"/>
      </g>
      <g transform="translate(130.8,33.98)" fill="#D3B79A">
        <path d="M-0.66,-0.34 L0.66,-0.34 0.66,0.34 -0.66,0.34  z" class="primitive"/>
      </g>
      <g transform="translate(130.8,33.3)" fill="#CDAB8E">
        <path d="M-0.66,-0.34 L0.66,-0.34 0.66,0.34 -0.66,0.34  z" class="primitive"/>
      </g>
      <g transform="translate(130.8,32.62)" fill="#C89E82">
        <path d="M-0.66,-0.34 L0.66,-0.34 0.66,0.34 -0.66,0.34  z" class="primitive"/>
      </g>
      <g transform="translate(130.8,31.93)" fill="#C19177">
        <path d="M-0.66,-0.34 L0.66,-0.34 0.66,0.34 -0.66,0.34  z" class="primitive"/>
      </g>
      <g transform="translate(130.8,31.25)" fill="#BA836C">
        <path d="M-0.66,-0.34 L0.66,-0.34 0.66,0.34 -0.66,0.34  z" class="primitive"/>
      </g>
      <g transform="translate(130.8,30.57)" fill="#B27563">
        <path d="M-0.66,-0.34 L0.66,-0.34 0.66,0.34 -0.66,0.34  z" class="primitive"/>
      </g>
      <g transform="translate(130.8,29.89)" fill="#AA665A">
        <path d="M-0.66,-0.34 L0.66,-0.34 0.66,0.34 -0.66,0.34  z" class="primitive"/>
      </g>
      <g transform="translate(130.8,29.2)" fill="#A05752">
        <path d="M-0.66,-0.34 L0.66,-0.34 0.66,0.34 -0.66,0.34  z" class="primitive"/>
      </g>
      <g transform="translate(130.8,28.52)" fill="#96484A">
        <path d="M-0.66,-0.34 L0.66,-0.34 0.66,0.34 -0.66,0.34  z" class="primitive"/>
      </g>
      <g transform="translate(130.8,27.84)" fill="#8B3844">
        <path d="M-0.66,-0.34 L0.66,-0.34 0.66,0.34 -0.66,0.34  z" class="primitive"/>
      </g>
      <g transform="translate(130.8,27.15)" fill="#7E273E">
        <path d="M-0.66,-0.34 L0.66,-0.34 0.66,0.34 -0.66,0.34  z" class="primitive"/>
      </g>
      <g stroke="#FFFFFF" stroke-width="0.2" id="img-9095467d-7">
        <g transform="translate(130.8,26.81)">
          <path fill="none" d="M-0.66,0 L0.66,0 " class="primitive"/>
        </g>
        <g transform="translate(130.8,47.3)">
          <path fill="none" d="M-0.66,0 L0.66,0 " class="primitive"/>
        </g>
        <g transform="translate(130.8,54.12)">
          <path fill="none" d="M-0.66,0 L0.66,0 " class="primitive"/>
        </g>
        <g transform="translate(130.8,40.47)">
          <path fill="none" d="M-0.66,0 L0.66,0 " class="primitive"/>
        </g>
        <g transform="translate(130.8,33.64)">
          <path fill="none" d="M-0.66,0 L0.66,0 " class="primitive"/>
        </g>
      </g>
    </g>
    <g fill="#362A35" font-size="3.88" font-family="'PT Sans','Helvetica Neue','Helvetica',sans-serif" stroke="#000000" stroke-opacity="0.000" id="img-9095467d-8">
      <g transform="translate(130.15,22.81)">
        <g class="primitive">
          <text dy="-0em"></text>
        </g>
      </g>
    </g>
  </g>
  <g clip-path="url(#img-9095467d-9)">
    <g id="img-9095467d-10">
      <g pointer-events="visible" stroke-width="0.3" fill="#000000" fill-opacity="0.000" stroke="#000000" stroke-opacity="0.000" class="guide background" id="img-9095467d-11">
        <g transform="translate(73.05,32.86)" id="img-9095467d-12">
          <path d="M-55.09,-27.86 L55.09,-27.86 55.09,27.86 -55.09,27.86  z" class="primitive"/>
        </g>
      </g>
      <g class="guide ygridlines xfixed" stroke-dasharray="0.5,0.5" stroke-width="0.2" stroke="#D0D0E0" id="img-9095467d-13">
        <g transform="translate(73.05,58.72)" id="img-9095467d-14">
          <path fill="none" d="M-55.09,0 L55.09,0 " class="primitive"/>
        </g>
        <g transform="translate(73.05,41.48)" id="img-9095467d-15">
          <path fill="none" d="M-55.09,0 L55.09,0 " class="primitive"/>
        </g>
        <g transform="translate(73.05,24.24)" id="img-9095467d-16">
          <path fill="none" d="M-55.09,0 L55.09,0 " class="primitive"/>
        </g>
        <g transform="translate(73.05,7)" id="img-9095467d-17">
          <path fill="none" d="M-55.09,0 L55.09,0 " class="primitive"/>
        </g>
      </g>
      <g class="guide xgridlines yfixed" stroke-dasharray="0.5,0.5" stroke-width="0.2" stroke="#D0D0E0" id="img-9095467d-18">
        <g transform="translate(19.96,32.86)" id="img-9095467d-19">
          <path fill="none" d="M0,-27.86 L0,27.86 " class="primitive"/>
        </g>
        <g transform="translate(37.66,32.86)" id="img-9095467d-20">
          <path fill="none" d="M0,-27.86 L0,27.86 " class="primitive"/>
        </g>
        <g transform="translate(55.35,32.86)" id="img-9095467d-21">
          <path fill="none" d="M0,-27.86 L0,27.86 " class="primitive"/>
        </g>
        <g transform="translate(73.05,32.86)" id="img-9095467d-22">
          <path fill="none" d="M0,-27.86 L0,27.86 " class="primitive"/>
        </g>
        <g transform="translate(90.75,32.86)" id="img-9095467d-23">
          <path fill="none" d="M0,-27.86 L0,27.86 " class="primitive"/>
        </g>
        <g transform="translate(108.45,32.86)" id="img-9095467d-24">
          <path fill="none" d="M0,-27.86 L0,27.86 " class="primitive"/>
        </g>
        <g transform="translate(126.15,32.86)" id="img-9095467d-25">
          <path fill="none" d="M0,-27.86 L0,27.86 " class="primitive"/>
        </g>
      </g>
      <g class="plotpanel" id="img-9095467d-26">
        <metadata>
          <boundingbox value="17.95833333333333mm 5.0mm 110.18833333333333mm 55.715mm"/>
          <unitbox value="-1.1130067647104986 31.16020496954462 6.226013529420998 -32.32040993908924"/>
        </metadata>
        <g shape-rendering="crispEdges" stroke-width="0.3" id="img-9095467d-27">
          <g stroke="#000000" stroke-opacity="0.000" class="geometry" id="img-9095467d-28">
            <g transform="translate(37.66,54.41)" id="img-9095467d-29" fill="#004D84">
              <path d="M-8.87,-4.31 L8.87,-4.31 8.87,4.31 -8.87,4.31  z" class="primitive"/>
            </g>
            <g transform="translate(55.35,35.44)" id="img-9095467d-30" fill="#88C4C4">
              <path d="M-8.87,-23.27 L8.87,-23.27 8.87,23.27 -8.87,23.27  z" class="primitive"/>
            </g>
            <g transform="translate(73.05,44.92)" id="img-9095467d-31" fill="#BECAB9">
              <path d="M-8.87,-13.79 L8.87,-13.79 8.87,13.79 -8.87,13.79  z" class="primitive"/>
            </g>
            <g transform="translate(90.75,52.68)" id="img-9095467d-32" fill="#D2B497">
              <path d="M-8.87,-6.03 L8.87,-6.03 8.87,6.03 -8.87,6.03  z" class="primitive"/>
            </g>
            <g transform="translate(108.45,55.27)" id="img-9095467d-33" fill="#7E273E">
              <path d="M-8.87,-3.45 L8.87,-3.45 8.87,3.45 -8.87,3.45  z" class="primitive"/>
            </g>
          </g>
        </g>
      </g>
    </g>
  </g>
  <g class="guide ylabels" font-size="2.82" font-family="'PT Sans Caption','Helvetica Neue','Helvetica',sans-serif" fill="#6C606B" id="img-9095467d-34">
    <g transform="translate(16.96,58.72)" id="img-9095467d-35">
      <g class="primitive">
        <text text-anchor="end" dy="0.35em">0</text>
      </g>
    </g>
    <g transform="translate(16.96,41.48)" id="img-9095467d-36">
      <g class="primitive">
        <text text-anchor="end" dy="0.35em">10</text>
      </g>
    </g>
    <g transform="translate(16.96,24.24)" id="img-9095467d-37">
      <g class="primitive">
        <text text-anchor="end" dy="0.35em">20</text>
      </g>
    </g>
    <g transform="translate(16.96,7)" id="img-9095467d-38">
      <g class="primitive">
        <text text-anchor="end" dy="0.35em">30</text>
      </g>
    </g>
  </g>
  <g font-size="3.88" font-family="'PT Sans','Helvetica Neue','Helvetica',sans-serif" fill="#564A55" stroke="#000000" stroke-opacity="0.000" id="img-9095467d-39">
    <g transform="translate(8.81,30.86)" id="img-9095467d-40">
      <g class="primitive">
        <text text-anchor="middle" dy="0.35em" transform="rotate(-90,0, 2)">频次</text>
      </g>
    </g>
  </g>
</g>
<defs>
  <clipPath id="img-9095467d-9">
    <path d="M17.96,5 L128.15,5 128.15,60.72 17.96,60.72 " />
  </clipPath>
</defs>
</svg>
